<svg width="1200" height="630" viewBox="0 0 1200 630" fill="none" xmlns="http://www.w3.org/2000/svg">
  <rect width="1200" height="630" fill="#07151B"/>
  <circle cx="1010" cy="86" r="230" fill="#51C9BB" opacity="0.14"/>
  <circle cx="175" cy="560" r="260" fill="#F3AA36" opacity="0.12"/>
  <path d="M0 502L150 356L276 464L454 282L619 447L772 332L946 482L1200 284V630H0V502Z" fill="#183942"/>
  <path d="M0 548L190 414L352 528L540 392L724 536L900 426L1200 546V630H0V548Z" fill="#112A32"/>
  <g transform="translate(780 190)">
    <rect x="0" y="38" width="190" height="172" rx="48" fill="#607B8C"/>
    <circle cx="42" cy="35" r="27" fill="#7893A2"/>
    <circle cx="148" cy="35" r="27" fill="#7893A2"/>
    <rect x="24" y="82" width="58" height="34" rx="10" fill="#183642" stroke="#0A1820" stroke-width="9"/>
    <rect x="108" y="82" width="58" height="34" rx="10" fill="#183642" stroke="#0A1820" stroke-width="9"/>
    <rect x="80" y="96" width="30" height="8" fill="#0A1820"/>
    <circle cx="72" cy="158" r="6" fill="#263F4B"/>
    <circle cx="118" cy="158" r="6" fill="#263F4B"/>
    <rect x="-18" y="180" width="226" height="150" rx="42" fill="#F3AA36"/>
    <rect x="-18" y="250" width="226" height="20" fill="#F6E6BC"/>
  </g>
  <text x="86" y="142" fill="#F3AA36" font-family="Arial, sans-serif" font-size="28" font-weight="800" letter-spacing="4">BABY HIPPO</text>
  <text x="86" y="244" fill="#F6F0DF" font-family="Georgia, serif" font-size="82" font-weight="700">From Worker</text>
  <text x="86" y="337" fill="#F6F0DF" font-family="Georgia, serif" font-size="82" font-weight="700">To On-Chain Boss</text>
  <text x="90" y="405" fill="#CBD7D9" font-family="Arial, sans-serif" font-size="30">Education • Discipline • Risk Management • Community</text>
  <rect x="90" y="460" width="294" height="58" rx="18" fill="#F3AA36"/>
  <text x="126" y="498" fill="#142129" font-family="Arial, sans-serif" font-size="22" font-weight="800">Join Baby Hippo</text>
  <text x="90" y="570" fill="#9BB0B6" font-family="Arial, sans-serif" font-size="22">babieshippo.com</text>
</svg>
